# xmcd
# 
# Track frame offsets:
#     150
#     22212
#     42682
#     60290
#     75592
#     98667
#     124637
#     140872
#     164207
#     180125
#     194035
#     217625
# 
# Disc length: 3089
# 
# Revision: 5
# Processed by: cddbd v1.5.2PL0 Copyright (c) Steve Scherf et al.
# Submitted via: fre:ac v1.0.17
# 
DISCID=a70c0f0c
DTITLE=Indigenous - Things We Do
DYEAR=1998
DGENRE=Blues
TTITLE0=Things We Do
TTITLE1=Got To Tell You
TTITLE2=Now That You're Gone
TTITLE3=Blues This Morning
TTITLE4=Bring Back That Day
TTITLE5=Nothing I Can Do
TTITLE6=Begin To Wonder
TTITLE7=How Far
TTITLE8=What's Goin' On
TTITLE9=Don't Take Your Time
TTITLE10=Holdin' Out
TTITLE11=Another Yesterday
EXTD=
EXTT0=
EXTT1=
EXTT2=
EXTT3=
EXTT4=
EXTT5=
EXTT6=
EXTT7=
EXTT8=
EXTT9=
EXTT10=
EXTT11=
PLAYORDER=
